<?xml version="1.0" encoding="utf-8"?>
<!-- Generator: Adobe Illustrator 26.2.0, SVG Export Plug-In . SVG Version: 6.00 Build 0)  -->
<svg version="1.1" id="Ebene_1" xmlns="http://www.w3.org/2000/svg" xmlns:xlink="http://www.w3.org/1999/xlink" x="0px" y="0px"
	 viewBox="0 0 708 140" style="enable-background:new 0 0 708 140;" xml:space="preserve">
<style type="text/css">
	.st0{fill:#009EE0;}
	.st1{fill:#FFFFFF;}
	.st2{fill:#F77159;}
</style>
<g>
	<g>
		<path class="st0" d="M436.3,73v-6.4l13.3-16.5h5.6l-16.4,19.6l16.4,20.4h-4.5L436.3,73z"/>
		<path class="st0" d="M458.7,70c0-2.9,0.6-5.6,1.7-8.1c1.2-2.5,2.7-4.6,4.7-6.5c1.9-1.8,4.2-3.2,6.8-4.3c2.6-1,5.3-1.6,8.1-1.6
			c2.8,0,5.5,0.5,8.1,1.6c2.6,1,4.8,2.5,6.8,4.3c1.9,1.8,3.5,4,4.6,6.5s1.7,5.2,1.7,8.1s-0.6,5.6-1.7,8.1s-2.7,4.6-4.6,6.5
			c-1.9,1.8-4.2,3.2-6.8,4.3c-2.6,1-5.3,1.6-8.1,1.6c-2.8,0-5.5-0.5-8.1-1.6c-2.6-1-4.8-2.5-6.8-4.3c-1.9-1.8-3.5-4-4.7-6.5
			C459.3,75.6,458.7,72.9,458.7,70z M463.5,69.9c0,2.3,0.4,4.4,1.3,6.4s2.1,3.7,3.6,5.2s3.3,2.6,5.2,3.5c2,0.9,4.1,1.3,6.3,1.3
			c2.2,0,4.4-0.4,6.3-1.3c2-0.9,3.7-2,5.2-3.5s2.7-3.2,3.6-5.2s1.3-4.1,1.3-6.4s-0.4-4.4-1.3-6.4c-0.9-2-2.1-3.7-3.6-5.2
			s-3.3-2.6-5.2-3.5c-2-0.9-4.1-1.3-6.3-1.3c-2.2,0-4.4,0.4-6.3,1.3c-1.9,0.9-3.7,2-5.2,3.5s-2.7,3.2-3.6,5.2
			C464,65.5,463.5,67.6,463.5,69.9z"/>
		<path class="st0" d="M532.5,58.4l-13,15.8h-0.1h-0.1l-0.6-0.6l-18.8-23.2l0.2-0.2h5c0.1,0,0.3,0,0.4,0.1c0.1,0.1,0.2,0.2,0.3,0.3
			l13,16.4c0.1,0.1,0.2,0.2,0.3,0.4c0.2,0.2,0.3,0.3,0.3,0.3h0.1h0.1c0,0,0-0.1,0.1-0.1c0.1-0.1,0.1-0.1,0.1-0.1l13.1-17.2h4.8v40
			h-4.4V57.7L532.5,58.4z"/>
		<path class="st0" d="M549.4,68.3c0.9,0,1.8,0,2.8,0s1.9,0,2.8,0c0.9,0,1.5,0,1.8,0c1.3,0,2.5-0.1,3.8-0.3c1.3-0.2,2.4-0.5,3.4-1
			s1.9-1.2,2.5-2.1c0.6-0.9,1-2.2,1-3.8c0-1.3-0.3-2.3-0.9-3.2c-0.6-0.9-1.3-1.6-2.2-2.2s-1.9-1-3-1.2c-1.1-0.3-2.2-0.4-3.3-0.4
			h-10.6V50H562c1.5,0,2.9,0.3,4.2,0.9c1.3,0.6,2.4,1.4,3.3,2.3c0.9,1,1.7,2.1,2.2,3.4s0.8,2.7,0.8,4.1s-0.2,2.8-0.7,4.1
			c-0.5,1.3-1.2,2.5-2.1,3.5c-0.9,1-2,1.9-3.2,2.5s-2.6,0.9-4.1,0.9h-10.1v18.4h-4.5V68.3C548,68.3,548.6,68.3,549.4,68.3z"/>
		<path class="st0" d="M594.6,50.2l26.2,39.9h-5.1l-11.8-17.9h-18.7l-11.8,17.9h-5.1L594.6,50.2z M600.9,67.6l-6.3-9.8l-6.4,9.8
			H600.9z"/>
		<path class="st0" d="M622.8,73v-6.4l13.3-16.5h5.6l-16.4,19.6l16.4,20.4h-4.5L622.8,73z"/>
		<path class="st0" d="M645.7,73v-6.4L659,50.1h5.6l-16.4,19.6l16.4,20.4h-4.5L645.7,73z"/>
		<path class="st0" d="M667.7,54.2V50h34.4v4.2h-14.5v36H683v-36C683,54.2,667.7,54.2,667.7,54.2z"/>
	</g>
	<g>
		<path class="st0" d="M391.9,93.9l16,8.8c5.9-9.5,9.3-20.7,9.3-32.7c0-33.3-26.1-60.4-58.9-62.2v18.8c0,1.3-1.1,2.4-2.5,2.2
			c-1.2-0.1-2-1.2-2-2.4V7.7c-33.9,0.6-61.1,28.2-61.1,62.2c0,12.8,3.9,24.6,10.4,34.5L319.7,92c1.1-0.8,2.6-0.5,3.3,0.7
			c0.6,1,0.2,2.3-0.7,3l-16.6,12.4c11.4,14.7,29.2,24.1,49.2,24.1c20.7,0,39.1-10.2,50.4-25.7l-15.7-8.7c-1.2-0.6-1.5-2.1-0.8-3.3
			C389.5,93.5,390.9,93.3,391.9,93.9z"/>
		<path class="st1" d="M384.7,53.5c-0.1-0.1-0.1-0.2-0.2-0.2c-0.1-0.1-0.3-0.2-0.4-0.3l-26.9-16.5c-0.7-0.4-1.5-0.4-2.2-0.1l-17.7,9
			c-1.2,0.6-1.6,2.1-0.9,3.2c0.6,1,2,1.3,3,0.7l15.4-7.8c0.7-0.3,1.5-0.3,2.1,0.1l20.4,12.5c0.6,0.3,0.6,1.1,0,1.5l-22,13.3
			c-0.8,0.5-1.7,0.4-2.5-0.1l-22.3-17.6c-0.8-0.7-2.1-0.6-2.9,0.1c-0.5,0.5-0.8,1.2-0.7,1.9l2,33.4c0,0.5,0.3,1.1,0.6,1.5l22.7,22.9
			c0.4,0.4,1,0.7,1.6,0.7c0.5,0,1-0.1,1.4-0.5l27.1-20.5c0.5-0.4,0.9-1,0.9-1.7l2-34.1l0,0l0,0C385.2,54.4,385.1,53.9,384.7,53.5z
			 M378.8,86.8c0,0.6-0.3,1.2-0.8,1.6l-20.6,15.5c-0.5,0.4-1.3,0-1.3-0.7V84.3c0-1.2-0.8-2.2-2-2.4c-1.3-0.1-2.5,0.9-2.5,2.2v17.7
			c0,0.8-0.9,1.1-1.5,0.6l-16.2-16.3c-0.4-0.4-0.6-0.9-0.6-1.4l-1.5-24.9c0-0.8,0.8-1.2,1.4-0.7l19.4,15.1c0.7,0.6,1.8,0.6,2.6,0.1
			l23.9-14.5c0.6-0.4,1.3,0.1,1.3,0.8L378.8,86.8z"/>
	</g>
	<g>
		<g>
			<path class="st2" d="M33.4,74.9l3.4-0.9c0.3,2.9,2.4,4.2,5,4.2c2.6,0,4.1-1.4,4.1-3.3c0-5-11-3.4-11-10.5c0-3.8,3.1-6,6.7-6
				c2.7,0,5.1,1.2,6.6,3.8L45.4,64c-0.9-1.6-2.2-2.5-3.9-2.5c-1.8,0-3.2,1.2-3.2,2.8c0,4.6,11,3,11,10.4c0,4.1-3.4,6.6-7.6,6.6
				C37.8,81.3,34.1,79.1,33.4,74.9z"/>
			<path class="st2" d="M61.8,58.8h14.7v3.1H65.2v6.4h10.4v3.1H65.2v6.4h11.3v3.2H61.8V58.8z"/>
			<path class="st2" d="M111.9,58.8v22.3h-3.3V63.5l-6.1,15.7h-3.3l-6.1-15.7v17.6h-3.3V58.8h4.6l6.4,16.6l6.4-16.6H111.9z"/>
			<path class="st2" d="M131.4,58.8h2.6l8.7,22.3H139l-1.8-5h-8.9l-1.8,5h-3.7L131.4,58.8z M136.1,73.1l-3.4-9.4l-3.4,9.4H136.1z"/>
			<path class="st2" d="M170.1,58.8v22.3h-3.4l-9.9-16.7v16.7h-3.3V58.8h3.4l9.9,16.6V58.8H170.1z"/>
			<path class="st2" d="M188.3,61.9h-7.2v-3h17.9v3h-7.2v19.2h-3.4V61.9z"/>
			<path class="st2" d="M209.8,58.8h3.4v22.3h-3.4V58.8z"/>
			<path class="st2" d="M225.2,69.9c0-6.3,3.4-11.4,10.6-11.4c4.4,0,7.8,2.2,9.5,6.3l-3.2,1.3c-0.9-3.1-3.2-4.3-6.4-4.3
				c-4.9,0-7.2,3.5-7.2,8.1c0,4.7,2.1,8.3,7.2,8.3c3.1,0,5.2-1.3,6.4-4.4l3.1,1.3c-1.8,4.1-5.2,6.3-9.6,6.3
				C228.6,81.4,225.2,76.2,225.2,69.9z"/>
		</g>
		<path class="st2" d="M272.8,67.9v4.5l-9.5,11.6h-4L271,70.2l-11.7-14.3h3.2L272.8,67.9z"/>
		<path class="st2" d="M5.9,72l0-4.5l9.5-11.5h4L7.7,69.6l11.7,14.3l-3.2,0L5.9,72z"/>
	</g>
</g>
</svg>
